<svg width="160" height="154" viewBox="0 0 160 154" fill="none" xmlns="http://www.w3.org/2000/svg">
<path fill-rule="evenodd" clip-rule="evenodd" d="M73.7709 135.524C58.3612 139.345 39.0211 139.302 28.0994 129.263C17.1709 119.218 24.5339 102.06 22.0996 88.0304C20.2052 77.1132 12.1784 67.0819 15.4359 56.2837C18.7505 45.2962 29.1108 37.2943 39.4355 30.5649C49.5369 23.981 60.989 19.5581 73.2681 18.5897C86.0791 17.5793 99.0698 19.1224 109.899 25.0074C121.161 31.1269 129.48 40.6889 134.279 51.7436C139.263 63.226 142.901 76.4828 137.249 88.0101C131.765 99.1943 116.19 102.172 105.701 110.023C94.4876 118.417 87.7337 132.062 73.7709 135.524Z" fill="#BDE4F3" fill-opacity="0.5"/>
<path d="M115.656 118.931C117.008 114.131 121.953 111.033 127.246 111.687C127.669 111.74 127.944 112.147 127.864 112.566C127.785 112.985 127.38 113.256 126.956 113.209C122.552 112.717 118.464 115.279 117.282 119.243C117.151 119.68 116.724 119.975 116.277 119.889C115.829 119.804 115.532 119.369 115.656 118.931Z" fill="#FF7315"/>
<path d="M67.6558 118.931C69.0075 114.131 73.9528 111.033 79.2457 111.687C79.6689 111.74 79.9442 112.147 79.8644 112.566C79.7847 112.985 79.38 113.256 78.9563 113.209C74.5517 112.717 70.4645 115.279 69.2816 119.243C69.1514 119.68 68.7238 119.975 68.2765 119.889C67.8293 119.804 67.5324 119.369 67.6558 118.931Z" fill="#FF7315"/>
<path d="M140.38 109.316C140.287 109.195 140.206 109.075 140.113 108.967C139.898 108.7 139.685 108.445 139.457 108.19C139.364 108.083 139.284 107.976 139.19 107.869C138.119 106.423 125.434 90.7556 124.953 90.2743C122.838 88.1586 120.015 86.9805 117.017 86.9805C114.02 86.9805 111.196 88.1456 109.082 90.2743C106.994 92.3635 105.857 95.1216 105.817 98.0277C102.98 96.9834 99.8622 96.9834 97.0253 98.0412C96.9853 95.1087 95.8481 92.35 93.7603 90.2749C91.646 88.1592 88.8226 86.994 85.825 86.994C83.1353 86.994 80.5393 87.9582 78.5323 89.6992C76.6052 91.6676 74.6383 94.2254 74.6383 94.2254C70.7977 98.9525 64.455 106.813 63.6658 107.87C63.6123 107.91 63.5587 107.977 63.5051 108.058C60.4673 111.432 58.6074 115.891 58.6074 120.779C58.6074 131.304 67.1582 139.86 77.676 139.86C88.1937 139.86 96.7445 131.304 96.7445 120.779C96.7445 119.868 96.6644 118.998 96.5437 118.127C96.6638 117.953 96.7581 117.752 96.771 117.525C96.7975 116.333 96.8246 114.726 96.8511 112.972C99.7416 111.58 103.154 111.58 106.044 112.972C106.097 116.347 106.164 119.212 106.191 119.882C106.177 120.176 106.137 120.484 106.137 120.779C106.137 131.29 114.688 139.846 125.192 139.846C135.697 139.846 144.248 131.289 144.248 120.779C144.248 116.466 142.802 112.503 140.38 109.316L140.38 109.316ZM77.6752 137.691C68.3482 137.691 60.7752 130.099 60.7752 120.779C60.7752 111.446 68.3624 103.868 77.6752 103.868C87.0023 103.868 94.5753 111.46 94.5753 120.779C94.5753 130.099 86.9881 137.691 77.6752 137.691ZM94.804 99.4204L94.7904 99.6479C94.804 99.6744 94.804 100.144 94.804 100.759C94.804 102.942 94.7504 107.883 94.6838 112.222C91.5394 105.995 85.103 101.697 77.6765 101.697C74.9733 101.697 72.4179 102.272 70.0758 103.29C72.1364 100.732 79.9381 91.3058 79.9381 91.3058C81.5842 89.9132 83.6714 89.1365 85.8392 89.1365C88.2615 89.1365 90.5359 90.0871 92.2487 91.788C93.9483 93.5017 94.8848 95.7784 94.8848 98.2018C94.8848 98.6038 94.8583 99.0193 94.8047 99.4206L94.804 99.4204ZM96.8646 110.575C96.9317 106.451 96.9718 102.152 96.9582 100.358C99.7951 99.0457 103.033 99.0328 105.87 100.358V101.402C105.87 103.558 105.924 107.12 105.964 110.561C103.06 109.463 99.7951 109.463 96.8646 110.575ZM108.051 99.6616C108.065 99.5814 108.065 99.4877 108.051 99.407C107.677 96.5681 108.6 93.7964 110.607 91.788C112.32 90.0743 114.595 89.1365 117.017 89.1365C119.439 89.1365 121.714 90.0736 123.413 91.788C123.774 92.1764 128.819 98.3898 132.781 103.291C130.452 102.273 127.883 101.697 125.18 101.697C122.557 101.697 120.028 102.233 117.62 103.264C115.023 104.094 112.495 106.531 112.495 106.531C110.675 108.151 109.23 110.093 108.172 112.222C108.092 106.732 108.011 100.184 108.051 99.6616ZM125.18 137.691C115.88 137.677 108.293 130.098 108.28 120.779C108.28 120.498 108.307 120.23 108.32 119.949V119.882C108.561 115.382 110.555 111.164 113.927 108.151C115.386 106.611 118.476 105.245 118.476 105.245C120.591 104.335 122.852 103.866 125.167 103.866C130.386 103.88 135.07 106.277 138.174 110.026C138.188 110.039 138.201 110.052 138.214 110.08C140.623 112.999 142.068 116.734 142.081 120.806C142.082 130.099 134.495 137.678 125.181 137.692L125.18 137.691Z" fill="#083461"/>
<circle cx="124.967" cy="121.268" r="12.5" stroke="#083461" stroke-width="2"/>
<circle cx="76.9668" cy="121.268" r="12.5" stroke="#083461" stroke-width="2"/>
</svg>
