<svg width="21" height="26" viewBox="0 0 21 26" fill="none" xmlns="http://www.w3.org/2000/svg">
<path d="M10.7782 0.000244141C8.1848 0.00336927 5.69845 1.05707 3.86461 2.93022C2.03076 4.80336 0.999164 7.34299 0.996104 9.99201C0.992998 12.1568 1.68528 14.2628 2.96676 15.9871C2.96676 15.9871 3.23355 16.3459 3.27712 16.3976L10.7782 25.4338L18.2829 16.3931C18.3221 16.345 18.5897 15.9871 18.5897 15.9871L18.5906 15.9843C19.8715 14.2609 20.5634 12.1558 20.5604 9.99201C20.5573 7.34299 19.5257 4.80336 17.6919 2.93022C15.858 1.05707 13.3717 0.00336927 10.7782 0.000244141V0.000244141ZM10.7782 13.6254C10.0747 13.6254 9.38697 13.4123 8.802 13.013C8.21703 12.6138 7.76111 12.0464 7.49187 11.3824C7.22264 10.7185 7.1522 9.98798 7.28945 9.28318C7.4267 8.57837 7.76549 7.93097 8.26296 7.42283C8.76044 6.91469 9.39426 6.56865 10.0843 6.42846C10.7743 6.28826 11.4895 6.36021 12.1395 6.63521C12.7895 6.91022 13.345 7.37592 13.7359 7.97342C14.1268 8.57092 14.3354 9.2734 14.3354 9.99201C14.3342 10.9553 13.9591 11.8787 13.2922 12.5599C12.6254 13.241 11.7213 13.6242 10.7782 13.6254V13.6254Z" fill="#083461"/>
</svg>
