<svg width="170" height="154" viewBox="0 0 170 154" fill="none" xmlns="http://www.w3.org/2000/svg">
<g clip-path="url(#clip0_393_3949)">
<path fill-rule="evenodd" clip-rule="evenodd" d="M37.773 114.168C28.9227 104.458 17.4389 95.3618 16.2266 82.1146C15.0329 69.0699 24.5928 58.1796 31.6579 47.3435C37.8497 37.8467 44.6355 28.844 54.4429 23.5C64.3674 18.0921 75.5398 16.6908 86.7729 17.3113C99.2019 17.9979 111.88 19.6262 121.951 27.2293C133.092 35.6396 141.66 47.6027 145.142 61.3752C148.847 76.0339 150.57 93.4736 141.738 105.496C133.083 117.277 115.254 113.838 102.172 119.87C90.0949 125.438 81.5803 140.493 68.3706 139.323C55.085 138.147 46.9331 124.218 37.773 114.168Z" fill="#BDE4F3" fill-opacity="0.5"/>
<path d="M92.0123 96.7334C91.4624 96.7547 91.033 97.2321 91.0524 97.8001L91.083 98.3469C91.1218 98.8887 91.5588 99.3006 92.0759 99.3006C92.1 99.3006 92.1259 99.2994 92.15 99.2982C92.6987 99.2569 93.1111 98.763 93.0711 98.1962L93.0458 97.7248C93.0246 97.1556 92.5247 96.7449 92.0123 96.7334Z" fill="#083461"/>
<path d="M91.6353 93.6231C91.4917 94.1722 91.807 94.7378 92.3376 94.886C92.4252 94.9097 92.5129 94.9213 92.5993 94.9213C93.0387 94.9213 93.4398 94.6199 93.5604 94.1613C94.898 89.0475 98.9636 85.3078 103.927 84.4604C104.403 84.379 104.747 83.9471 104.748 83.4496C104.749 82.8184 104.204 82.327 103.601 82.4296C97.8719 83.4058 93.1787 87.7213 91.6353 93.6231Z" fill="#083461"/>
<path d="M119.995 81.6982C115.429 77.5012 109.303 75.5207 103.169 76.2546C93.7983 77.3833 85.9703 85.1736 84.5549 94.781C83.3526 102.944 86.5577 111.063 92.9185 115.97C94.5842 117.255 95.5783 119.432 95.5783 121.79V125.596C95.5783 127.186 96.5053 128.553 97.827 129.167V132.765C97.4853 132.871 97.2059 133.148 97.13 133.535C97.0265 134.06 97.3388 134.56 97.827 134.711V136.907C97.4876 137.012 97.207 137.29 97.1312 137.673C97.0253 138.2 97.337 138.703 97.827 138.855V140.786C97.827 142.397 99.0946 143.706 100.652 143.706H101.841C101.873 144.244 102.297 144.676 102.826 144.676H108.692C109.221 144.676 109.644 144.245 109.676 143.706H110.833C112.391 143.706 113.658 142.397 113.658 140.786V137.093C113.692 137.08 113.768 137.05 113.781 137.045C114.292 136.834 114.539 136.236 114.335 135.708C114.213 135.394 113.952 135.194 113.658 135.113V132.949C113.683 132.939 113.75 132.915 113.761 132.911C114.275 132.711 114.537 132.118 114.344 131.587C114.226 131.262 113.96 131.054 113.658 130.971V129.168C114.981 128.553 115.907 127.187 115.907 125.596V121.78C115.907 119.454 116.963 117.235 118.73 115.844C124.104 111.615 127.186 105.202 127.186 98.2471C127.185 91.9312 124.565 85.9006 119.995 81.6988L119.995 81.6982ZM111.666 140.786C111.666 141.261 111.292 141.646 110.833 141.646H100.652C100.193 141.646 99.8194 141.261 99.8194 140.786V139.183C100.632 139.272 101.443 139.323 102.243 139.323C106.018 139.323 109.526 138.453 111.665 137.788V140.786L111.666 140.786ZM111.666 135.628C109.363 136.385 104.517 137.682 99.8199 137.119V135.031C100.55 135.104 101.283 135.143 102.014 135.143C105.823 135.143 109.467 134.264 111.666 133.607L111.666 135.628ZM111.666 131.454C109.316 132.187 104.38 133.459 99.8199 132.961V129.517H111.666V131.454ZM102.496 104.349H101.911C101.716 104.342 101.54 104.321 101.377 104.288C100.684 104.145 100.491 103.529 100.449 103.344C100.409 103.168 100.316 102.566 100.833 102.147C100.94 102.06 101.087 101.971 101.324 101.971C101.414 101.971 101.515 101.984 101.631 102.013C102.133 102.139 102.497 102.643 102.497 103.208L102.496 104.349ZM104.489 127.457V106.407H107.429V127.457H104.489ZM117.521 114.205C115.262 115.983 113.914 118.814 113.914 121.778V125.595C113.914 126.621 113.104 127.457 112.109 127.457L109.421 127.457V106.407H110.082C110.396 106.394 110.68 106.359 110.933 106.305C112.162 106.051 113.112 105.1 113.407 103.822C113.697 102.572 113.278 101.309 112.314 100.526C111.61 99.9535 110.742 99.7809 109.812 100.012C108.409 100.368 107.428 101.681 107.428 103.208V104.349H104.488V103.208C104.488 101.681 103.508 100.368 102.108 100.014C101.177 99.7761 100.311 99.9535 99.6001 100.526C98.6378 101.309 98.2202 102.571 98.5084 103.821C98.8043 105.1 99.753 106.052 100.981 106.305C101.238 106.36 101.521 106.395 101.872 106.407H102.495V127.457H99.3731C98.3791 127.457 97.5702 126.621 97.5702 125.595V121.79C97.5702 118.786 96.2768 115.994 94.11 114.321C88.3404 109.87 85.4335 102.502 86.5252 95.0902C87.8075 86.3833 94.9035 79.321 103.399 78.2993C104.196 78.2027 104.987 78.1559 105.772 78.1559C110.549 78.1559 115.059 79.9163 118.667 83.235C122.814 87.0464 125.191 92.5174 125.191 98.2447C125.192 104.552 122.396 110.369 117.521 114.205L117.521 114.205ZM109.421 104.349V103.208C109.421 102.642 109.786 102.139 110.289 102.012C110.71 101.902 110.935 102.024 111.083 102.145C111.601 102.566 111.51 103.169 111.468 103.343C111.425 103.529 111.233 104.144 110.538 104.287C110.378 104.321 110.202 104.341 110.045 104.348L109.421 104.349Z" fill="#083461"/>
<path d="M105.742 72.1614C106.292 72.1614 106.739 71.7004 106.739 71.1324V66.4414C106.739 65.8734 106.292 65.4124 105.742 65.4124C105.193 65.4124 104.746 65.8734 104.746 66.4414V71.1324C104.746 71.7004 105.193 72.1614 105.742 72.1614Z" fill="#FF7315"/>
<path d="M96.0361 73.0811C96.1831 73.4997 96.5655 73.7584 96.9731 73.7584C97.086 73.7584 97.2019 73.7384 97.3137 73.6971C97.8307 73.5021 98.0983 72.9116 97.9101 72.3776L96.3561 67.9697C96.1685 67.4357 95.5979 67.1642 95.0785 67.3537C94.5615 67.5487 94.2939 68.1392 94.4821 68.6732L96.0361 73.0811Z" fill="#FF7315"/>
<path d="M88.4949 77.9893C88.692 78.2329 88.9755 78.3574 89.259 78.3574C89.4854 78.3574 89.7131 78.2785 89.8989 78.1175C90.3213 77.7518 90.376 77.1024 90.0231 76.6674L87.1044 73.0736C86.7491 72.6338 86.118 72.5809 85.7004 72.9454C85.2781 73.3112 85.2234 73.9605 85.5763 74.3955L88.4949 77.9893Z" fill="#FF7315"/>
<path d="M79.1035 82.919L83.0362 85.2639C83.1932 85.3581 83.365 85.4024 83.5338 85.4024C83.8779 85.4024 84.2137 85.2177 84.3979 84.8885C84.6743 84.3958 84.5096 83.7665 84.0338 83.4822L80.1011 81.1373C79.6229 80.8493 79.0124 81.0207 78.7394 81.5133C78.4636 82.0054 78.6277 82.6347 79.1035 82.919Z" fill="#FF7315"/>
<path d="M75.8449 93.2158L80.3176 94.0298C80.3758 94.0401 80.4346 94.045 80.4917 94.045C80.9663 94.045 81.3869 93.6945 81.4722 93.1945C81.5669 92.6356 81.2057 92.101 80.6628 92.002L76.1902 91.188C75.6491 91.0938 75.1303 91.4632 75.0356 92.0239C74.9409 92.5828 75.3026 93.1167 75.8449 93.2158Z" fill="#FF7315"/>
<path d="M81.4722 102.035C81.3787 101.476 80.8675 101.108 80.3176 101.199L75.8449 102.013C75.302 102.113 74.9409 102.646 75.0356 103.206C75.1209 103.705 75.5414 104.056 76.0161 104.056C76.0732 104.056 76.132 104.051 76.1902 104.041L80.6628 103.227C81.2057 103.128 81.5675 102.594 81.4722 102.035Z" fill="#FF7315"/>
<path d="M83.0364 109.965L79.1038 112.311C78.6268 112.595 78.4638 113.224 78.7397 113.717C78.9232 114.046 79.2591 114.231 79.6038 114.231C79.7732 114.231 79.9443 114.187 80.1014 114.092L84.034 111.746C84.511 111.462 84.674 110.833 84.3981 110.34C84.1246 109.852 83.5135 109.68 83.0364 109.965Z" fill="#FF7315"/>
<path d="M132.381 112.31L128.447 109.964C127.969 109.675 127.358 109.848 127.085 110.34C126.809 110.832 126.974 111.462 127.45 111.746L131.383 114.092C131.54 114.186 131.712 114.231 131.881 114.231C132.225 114.231 132.561 114.046 132.745 113.717C133.021 113.223 132.857 112.594 132.381 112.31Z" fill="#FF7315"/>
<path d="M135.639 102.015L131.167 101.201C130.628 101.106 130.107 101.477 130.012 102.037C129.917 102.595 130.279 103.13 130.822 103.229L135.294 104.043C135.352 104.053 135.411 104.058 135.468 104.058C135.943 104.058 136.363 103.708 136.449 103.208C136.543 102.648 136.182 102.114 135.639 102.015Z" fill="#FF7315"/>
<path d="M130.012 93.194C130.098 93.6939 130.518 94.0444 130.993 94.0444C131.05 94.0444 131.109 94.0396 131.167 94.0292L135.64 93.2152C136.182 93.1156 136.544 92.5822 136.449 92.0227C136.354 91.4638 135.845 91.0951 135.294 91.1868L130.822 92.0009C130.279 92.1005 129.917 92.6345 130.012 93.194Z" fill="#FF7315"/>
<path d="M127.95 85.4025C128.119 85.4025 128.29 85.3582 128.446 85.264L132.381 82.9204C132.856 82.6349 133.021 82.0055 132.745 81.5129C132.47 81.0226 131.862 80.8531 131.382 81.1368L127.45 83.4804C126.973 83.7659 126.809 84.3953 127.083 84.888C127.269 85.2178 127.605 85.4025 127.95 85.4025Z" fill="#FF7315"/>
<path d="M122.225 78.3579C122.509 78.3579 122.792 78.2334 122.989 77.9898L125.908 74.396C126.261 73.961 126.206 73.3116 125.784 72.9459C125.364 72.5814 124.733 72.6343 124.38 73.0741L121.461 76.6679C121.108 77.1029 121.163 77.7523 121.585 78.118C121.772 78.2783 121.999 78.3579 122.225 78.3579Z" fill="#FF7315"/>
<path d="M114.172 73.6972C114.283 73.7385 114.399 73.7585 114.512 73.7585C114.92 73.7585 115.302 73.4997 115.449 73.0812L117.003 68.6733C117.192 68.1393 116.924 67.5488 116.407 67.3538C115.894 67.1631 115.318 67.4352 115.129 67.9698L113.575 72.3777C113.386 72.9117 113.654 73.5022 114.172 73.6972Z" fill="#FF7315"/>
</g>
<defs>
<clipPath id="clip0_393_3949">
<rect width="170" height="153" fill="white" transform="translate(0 0.5)"/>
</clipPath>
</defs>
</svg>
