<svg width="20" height="17" viewBox="0 0 20 17" fill="none" xmlns="http://www.w3.org/2000/svg">
<g clip-path="url(#clip0_586_11257)">
<path d="M2 16.5C1.45 16.5 0.979002 16.304 0.587002 15.912C0.195002 15.52 -0.000664969 15.0493 1.69779e-06 14.5V2.5C1.69779e-06 1.95 0.196002 1.479 0.588002 1.087C0.980002 0.695002 1.45067 0.499335 2 0.500002H18C18.55 0.500002 19.021 0.696001 19.413 1.088C19.805 1.48 20.0007 1.95067 20 2.5V14.5C20 15.05 19.804 15.521 19.412 15.913C19.02 16.305 18.5493 16.5007 18 16.5H2ZM10 9.5L20 4.5L20 2.5L10 7.5L1.69779e-06 3V5L10 9.5Z" fill="#083461"/>
</g>
<defs>
<clipPath id="clip0_586_11257">
<rect width="20" height="16" fill="white" transform="translate(0 0.5)"/>
</clipPath>
</defs>
</svg>
