<svg width="144" height="154" viewBox="0 0 144 154" fill="none" xmlns="http://www.w3.org/2000/svg">
<g clip-path="url(#clip0_588_8047)">
<path fill-rule="evenodd" clip-rule="evenodd" d="M96.3162 18.8066C111.151 21.2751 122.691 26.383 131.259 40.1262C139.282 52.9946 137.781 63.801 135.859 79.2487C133.945 94.6368 113.52 96.4647 102.763 106.31C91.3733 116.735 84.4912 136.87 69.6919 136.62C53.3201 136.344 48.3424 135.458 36.5192 122.767C22.0748 107.262 1.80208 89.2312 6.5501 67.6516C11.2983 46.0714 22.7366 34.3643 40.2261 23.7006C53.3855 15.677 81.4165 16.3273 96.3162 18.8066Z" fill="#BDE4F3" fill-opacity="0.5"/>
<g clip-path="url(#clip1_588_8047)">
<path d="M117.08 130.69C117.578 130.822 118.088 130.525 118.22 130.028C118.352 129.53 118.055 129.02 117.557 128.888L117.08 130.69ZM79.4815 119.681L78.5531 119.763L78.6099 120.412L79.24 120.581L79.4815 119.681ZM78.3016 106.195L77.8632 105.372L77.3194 105.662L77.3731 106.276L78.3016 106.195ZM114.021 87.9046C114.475 87.6625 114.647 87.098 114.405 86.6438C114.163 86.1896 113.598 86.0176 113.144 86.2597L114.021 87.9046ZM69.9358 122.851L69.0074 122.932L69.0886 123.861L70.017 123.779L69.9358 122.851ZM79.6842 121.998L79.7654 122.927L80.6938 122.845L80.6126 121.917L79.6842 121.998ZM77.9784 102.501L78.9068 102.42L78.8256 101.492L77.8972 101.573L77.9784 102.501ZM68.23 103.354L68.1488 102.426L67.2204 102.507L67.3016 103.435L68.23 103.354ZM105.348 126.62L105.106 127.52L105.109 127.521L105.348 126.62ZM106.896 90.8477L106.434 90.0378L106.896 90.8477ZM83.2233 141.981L82.9819 141.081L83.2233 141.981ZM77.4291 143.535L77.6704 144.435L77.4291 143.535ZM80.4099 119.6L79.23 106.114L77.3731 106.276L78.5531 119.763L80.4099 119.6ZM80.6126 121.917L78.9068 102.42L77.05 102.583L78.7557 122.079L80.6126 121.917ZM71.8032 122.769L75.352 142.957L77.1878 142.635L73.6389 122.446L71.8032 122.769ZM77.6704 144.435L83.4646 142.882L82.9819 141.081L77.1878 142.635L77.6704 144.435ZM84.7268 140.426L77.7713 121.914L76.0265 122.57L82.9819 141.081L84.7268 140.426ZM68.5488 106.997L63.2476 107.461L63.4101 109.318L68.7112 108.854L68.5488 106.997ZM64.4319 120.998L69.7331 120.534L69.5706 118.677L64.2695 119.141L64.4319 120.998ZM115.463 108.577L115.512 109.134L117.369 108.971L117.32 108.415L115.463 108.577ZM78.3016 106.195C78.7399 107.017 78.74 107.017 78.7401 107.017C78.7402 107.017 78.7403 107.017 78.7405 107.017C78.7409 107.017 78.7415 107.016 78.7422 107.016C78.7437 107.015 78.746 107.014 78.749 107.012C78.755 107.009 78.764 107.004 78.776 106.998C78.7999 106.985 78.8355 106.966 78.8825 106.941C78.9765 106.891 79.1158 106.817 79.2974 106.72C79.6604 106.527 80.1921 106.243 80.8666 105.884C82.2157 105.165 84.1362 104.141 86.4222 102.923C90.994 100.486 97.0275 97.2697 102.874 94.1536L101.997 92.5087C96.1507 95.6248 90.1173 98.8408 85.5454 101.278C83.2595 102.496 81.3389 103.52 79.9898 104.239C79.3153 104.598 78.7836 104.882 78.4206 105.075C78.2391 105.172 78.0997 105.246 78.0058 105.296C77.9588 105.321 77.9231 105.34 77.8992 105.353C77.8873 105.36 77.8783 105.364 77.8723 105.368C77.8692 105.369 77.867 105.37 77.8655 105.371C77.8647 105.372 77.8641 105.372 77.8638 105.372C77.8636 105.372 77.8634 105.372 77.8633 105.372C77.8632 105.372 77.8632 105.372 78.3016 106.195ZM105.589 125.72L79.7229 118.781L79.24 120.581L105.106 127.52L105.589 125.72ZM101.531 93.1067C99.8597 99.842 99.1044 105.13 99.5308 110.351C99.9576 115.576 101.562 120.663 104.502 127.012L106.193 126.228C103.303 119.988 101.791 115.124 101.389 110.199C100.986 105.269 101.69 100.207 103.34 93.5556L101.531 93.1067ZM77.8972 101.573L73.023 101.999L73.1855 103.856L78.0596 103.43L77.8972 101.573ZM73.023 101.999L68.1488 102.426L68.3113 104.283L73.1855 103.856L73.023 101.999ZM70.017 123.779L74.8912 123.353L74.7288 121.496L69.8546 121.923L70.017 123.779ZM74.8912 123.353L79.7654 122.927L79.6029 121.07L74.7288 121.496L74.8912 123.353ZM72.1758 103.009L73.8816 122.506L75.7384 122.343L74.0327 102.847L72.1758 103.009ZM67.9391 110.721L68.3452 115.363L70.202 115.201L69.7959 110.559L67.9391 110.721ZM68.3452 115.363L69.0074 122.932L70.8642 122.77L70.202 115.201L68.3452 115.363ZM102.874 94.1536C104.19 93.4521 105.764 92.5647 107.357 91.6575L106.434 90.0378C104.842 90.9449 103.288 91.8208 101.997 92.5087L102.874 94.1536ZM107.357 91.6575C109.806 90.2628 112.293 88.8257 114.021 87.9046L113.144 86.2597C111.386 87.1971 108.861 88.6561 106.434 90.0378L107.357 91.6575ZM117.557 128.888L110.375 126.987L109.898 128.789L117.08 130.69L117.557 128.888ZM110.375 126.987L105.586 125.719L105.109 127.521L109.898 128.789L110.375 126.987ZM105.995 90.6093C104.03 98.0353 103.173 103.871 103.664 109.666C104.156 115.463 105.989 121.146 109.29 128.279L110.982 127.496C107.726 120.461 105.987 115.002 105.522 109.509C105.056 104.016 105.858 98.415 107.797 91.086L105.995 90.6093ZM67.3016 103.435L67.7016 108.007L69.5584 107.844L69.1585 103.273L67.3016 103.435ZM67.7016 108.007L67.9391 110.721L69.7959 110.559L69.5584 107.844L67.7016 108.007ZM115.512 109.134C115.709 111.39 114.04 113.379 111.784 113.577L111.946 115.433C115.228 115.146 117.656 112.253 117.369 108.971L115.512 109.134ZM110.92 104.765C113.227 104.563 115.261 106.27 115.463 108.577L117.32 108.415C117.028 105.082 114.09 102.616 110.757 102.908L110.92 104.765ZM63.2476 107.461C59.5095 107.788 56.7442 111.084 57.0713 114.822L58.9281 114.659C58.6908 111.947 60.6974 109.555 63.4101 109.318L63.2476 107.461ZM83.4646 142.882C84.5282 142.597 85.1141 141.456 84.7268 140.426L82.9819 141.081L82.9819 141.081L83.4646 142.882ZM64.2695 119.141C61.5569 119.378 59.1654 117.372 58.9281 114.659L57.0713 114.822C57.3983 118.56 60.6938 121.325 64.4319 120.998L64.2695 119.141ZM75.352 142.957C75.5414 144.035 76.6137 144.718 77.6704 144.435L77.1878 142.635L77.1878 142.635L75.352 142.957Z" fill="#083461"/>
<path d="M127.776 94.2601L135.14 87.5349" stroke="#FF7315" stroke-width="1.86393" stroke-linecap="round"/>
<path d="M130.051 120.256L138.471 125.6" stroke="#FF7315" stroke-width="1.86393" stroke-linecap="round"/>
<path d="M130.126 110.426L138.518 113.212" stroke="#FF7315" stroke-width="1.86393" stroke-linecap="round"/>
<path d="M129.558 103.927L137.338 99.7264" stroke="#FF7315" stroke-width="1.86393" stroke-linecap="round"/>
<path d="M123.342 107.745C123.885 113.956 123.551 119.613 122.594 123.727C122.115 125.79 121.492 127.412 120.783 128.516C120.066 129.635 119.363 130.078 118.752 130.131C118.141 130.185 117.371 129.87 116.471 128.894C115.582 127.929 114.686 126.44 113.856 124.492C112.2 120.606 110.888 115.093 110.344 108.882C109.801 102.672 110.136 97.0147 111.092 92.9001C111.571 90.8376 112.195 89.2157 112.903 88.111C113.62 86.9927 114.324 86.5493 114.934 86.4959C115.545 86.4425 116.315 86.7569 117.215 87.7337C118.105 88.6986 119 90.1877 119.831 92.1356C121.487 96.0216 122.799 101.534 123.342 107.745Z" stroke="#083461" stroke-width="1.86393"/>
</g>
</g>
<defs>
<clipPath id="clip0_588_8047">
<rect width="144" height="153" fill="white" transform="translate(0 0.5)"/>
</clipPath>
<clipPath id="clip1_588_8047">
<rect width="88.5365" height="61.5096" fill="white" transform="translate(53.4971 90) rotate(-5)"/>
</clipPath>
</defs>
</svg>
