<svg width="21" height="21" viewBox="0 0 21 21" fill="none" xmlns="http://www.w3.org/2000/svg">
<g clip-path="url(#clip0_586_11258)">
<path d="M5.18138 20.3193C5.03434 20.3587 4.87901 20.3966 4.71537 20.4329C4.55158 20.4685 4.3942 20.4987 4.24322 20.5234L2.86033 15.3624L7.03506 13.2982L8.61369 14.1853C9.54994 13.2095 10.361 12.1333 11.0467 10.9567C11.7319 9.78029 12.2414 8.58 12.5753 7.35586L11.0467 6.47902L10.6749 1.82718L15.8359 0.444292C15.9047 0.58345 15.9608 0.733899 16.0041 0.895641L16.1282 1.35881C16.6365 3.25559 16.709 5.21775 16.3458 7.24528C15.9833 9.27325 15.2944 11.1719 14.2788 12.9411C13.2639 14.7102 11.9683 16.2551 10.3919 17.5757C8.81502 18.8966 7.07816 19.8111 5.18138 20.3193Z" fill="#083461"/>
</g>
<defs>
<clipPath id="clip0_586_11258">
<rect width="20.1351" height="20.1351" fill="white" transform="translate(0 0.432465)"/>
</clipPath>
</defs>
</svg>
